<?xml version="1.0" standalone="no"?>
<!DOCTYPE svg PUBLIC "-//W3C//DTD SVG 20010904//EN"
 "http://www.w3.org/TR/2001/REC-SVG-20010904/DTD/svg10.dtd">
<svg version="1.0" xmlns="http://www.w3.org/2000/svg"
 width="700.000000pt" height="700.000000pt" viewBox="0 0 700.000000 700.000000"
 preserveAspectRatio="xMidYMid meet">
<metadata>
Created by potrace 1.14, written by Peter Selinger 2001-2017
</metadata>
<g transform="translate(0.000000,700.000000) scale(0.100000,-0.100000)"
fill="#000000" stroke="none">
<path d="M4 6193 c4 -444 8 -850 10 -901 23 -558 22 -544 30 -702 4 -63 9
-144 11 -180 3 -36 8 -96 10 -135 6 -80 15 -182 20 -240 2 -22 9 -92 15 -155
6 -63 13 -126 15 -140 2 -14 7 -52 10 -85 3 -33 8 -71 11 -85 2 -14 6 -43 9
-65 6 -60 35 -255 49 -335 3 -14 7 -43 11 -64 3 -21 7 -48 10 -60 3 -12 7 -32
9 -46 16 -101 88 -409 140 -600 32 -119 128 -411 156 -475 5 -11 26 -60 45
-110 50 -124 168 -362 232 -468 196 -325 371 -527 672 -779 52 -44 262 -179
353 -227 311 -166 681 -274 1083 -316 33 -4 75 -9 94 -11 19 -2 107 -6 196 -9
l161 -6 -2 73 c-1 40 -5 233 -8 428 -4 195 -9 423 -11 505 -2 83 -6 272 -10
420 -10 470 -24 909 -40 1255 -10 225 -16 328 -20 380 -3 30 -7 96 -10 145
-14 216 -38 514 -50 605 -2 19 -7 60 -10 90 -8 78 -28 240 -41 330 -49 340
-133 724 -214 970 -42 130 -92 263 -102 275 -4 5 -8 15 -8 23 0 45 -244 478
-314 559 -6 7 -15 18 -21 25 -113 147 -300 322 -454 424 -31 20 -68 45 -84 56
-36 25 -236 127 -314 160 -158 68 -432 149 -618 183 -89 17 -272 45 -325 50
-36 4 -72 8 -80 10 -51 10 -250 23 -459 30 l-163 6 6 -808z"/>
<path d="M6757 6994 c-1 -1 -56 -5 -122 -8 -66 -4 -131 -8 -145 -10 -14 -3
-57 -7 -95 -10 -39 -4 -80 -8 -91 -10 -11 -2 -46 -7 -77 -10 -175 -19 -487
-89 -676 -153 -437 -146 -748 -355 -1029 -689 -27 -32 -157 -224 -209 -309
-27 -44 -127 -253 -155 -324 -16 -42 -33 -85 -39 -96 -21 -44 -121 -370 -134
-433 -1 -9 -8 -37 -15 -62 -7 -25 -13 -52 -15 -60 -2 -8 -14 -69 -28 -135 -24
-112 -69 -369 -81 -460 -21 -160 -36 -278 -41 -325 -4 -30 -8 -66 -10 -80 -3
-14 -7 -59 -10 -100 -3 -41 -7 -91 -9 -110 -3 -19 -7 -71 -11 -115 -20 -271
-25 -342 -30 -440 -3 -49 -7 -126 -10 -170 -16 -255 -39 -897 -50 -1455 -3
-135 -7 -321 -10 -415 -2 -93 -7 -323 -11 -510 -3 -187 -7 -377 -8 -423 l-2
-83 160 6 c89 3 175 7 191 9 203 21 194 20 260 30 384 57 753 188 1065 379
390 238 728 617 972 1087 57 110 81 160 145 308 75 173 204 574 249 772 4 19
9 40 10 45 10 39 54 236 58 260 3 17 8 41 11 55 14 70 27 138 31 165 3 17 12
68 19 115 20 115 62 429 70 515 4 39 8 81 10 95 4 23 6 51 20 200 9 95 26 317
30 385 2 28 6 104 10 170 3 66 8 149 10 185 4 61 11 261 21 520 2 63 6 472 10
907 l6 793 -122 -3 c-67 -1 -122 -3 -123 -3z"/>
</g>
</svg>
